<svg width="30" height="30" viewBox="0 0 30 30" fill="#B1E7DD" xmlns="http://www.w3.org/2000/svg">
<path fill-rule="evenodd" clip-rule="evenodd" d="M14.9999 24.4119C20.198 24.4119 24.4119 20.198 24.4119 14.9999C24.4119 9.80178 20.198 5.58789 14.9999 5.58789C9.80178 5.58789 5.58789 9.80178 5.58789 14.9999C5.58789 20.198 9.80178 24.4119 14.9999 24.4119ZM20.9319 12.3809C21.3224 11.9904 21.3224 11.3573 20.9319 10.9667C20.5414 10.5762 19.9082 10.5762 19.5177 10.9667L13.5719 16.9124L10.4823 13.8226C10.0917 13.4321 9.45858 13.4321 9.06805 13.8226C8.67752 14.2131 8.67751 14.8463 9.06803 15.2368L12.8648 19.0337C13.0523 19.2212 13.3067 19.3266 13.5719 19.3266C13.8371 19.3266 14.0915 19.2213 14.279 19.0337L20.9319 12.3809Z" fill="current"/>
</svg>
