<svg width="30" height="31" viewBox="0 0 30 31" fill="none" xmlns="http://www.w3.org/2000/svg">
<path fill-rule="evenodd" clip-rule="evenodd" d="M9.08924 8.17463C10.4611 7.06624 12.1507 6.33541 14 6.14014V10.5402C13.3457 10.6713 12.737 10.9287 12.2005 11.2859L9.08924 8.17463ZM7.67501 9.58883C6.56654 10.9608 5.83567 12.6504 5.64038 14.4998H10.0402C10.1714 13.8454 10.4289 13.2366 10.7862 12.7L7.67501 9.58883ZM17.7993 19.7131C17.2628 20.0703 16.6542 20.3277 16 20.459V24.8591C17.8493 24.6638 19.5388 23.9329 20.9107 22.8245L17.7993 19.7131ZM22.3249 21.4103C23.4332 20.0385 24.164 18.349 24.3594 16.4998H19.959C19.8278 17.1539 19.5705 17.7624 19.2134 18.2988L22.3249 21.4103ZM5.64041 16.4998C5.83574 18.3491 6.56664 20.0387 7.67512 21.4106L10.7863 18.2994C10.429 17.7628 10.1715 17.1541 10.0403 16.4998H5.64041ZM14 24.8591C12.1508 24.6639 10.4612 23.9331 9.08937 22.8248L12.2006 19.7135C12.7372 20.0706 13.3458 20.328 14 20.4591V24.8591ZM19.9591 14.4998C19.8279 13.8456 19.5706 13.2371 19.2135 12.7006L22.325 9.58913C23.4333 10.961 24.1641 12.6505 24.3594 14.4998H19.9591ZM16 6.14016C17.8493 6.33549 19.5389 7.0664 20.9108 8.17487L17.7994 11.2863C17.2629 10.9291 16.6543 10.6716 16 10.5403V6.14016Z" fill="#B1E7DD"/>
<path fill-rule="evenodd" clip-rule="evenodd" d="M9.08924 8.17463C10.4611 7.06624 12.1507 6.33541 14 6.14014V10.5402C13.3457 10.6713 12.737 10.9287 12.2005 11.2859L9.08924 8.17463ZM7.67501 9.58883C6.56654 10.9608 5.83567 12.6504 5.64038 14.4998H10.0402C10.1714 13.8454 10.4289 13.2366 10.7862 12.7L7.67501 9.58883ZM17.7993 19.7131C17.2628 20.0703 16.6542 20.3277 16 20.459V24.8591C17.8493 24.6638 19.5388 23.9329 20.9107 22.8245L17.7993 19.7131ZM22.3249 21.4103C23.4332 20.0385 24.164 18.349 24.3594 16.4998H19.959C19.8278 17.1539 19.5705 17.7624 19.2134 18.2988L22.3249 21.4103ZM5.64041 16.4998C5.83574 18.3491 6.56664 20.0387 7.67512 21.4106L10.7863 18.2994C10.429 17.7628 10.1715 17.1541 10.0403 16.4998H5.64041ZM14 24.8591C12.1508 24.6639 10.4612 23.9331 9.08937 22.8248L12.2006 19.7135C12.7372 20.0706 13.3458 20.328 14 20.4591V24.8591ZM19.9591 14.4998C19.8279 13.8456 19.5706 13.2371 19.2135 12.7006L22.325 9.58913C23.4333 10.961 24.1641 12.6505 24.3594 14.4998H19.9591ZM16 6.14016C17.8493 6.33549 19.5389 7.0664 20.9108 8.17487L17.7994 11.2863C17.2629 10.9291 16.6543 10.6716 16 10.5403V6.14016Z" fill="#B1E7DD"/>
<path fill-rule="evenodd" clip-rule="evenodd" d="M9.08924 8.17463C10.4611 7.06624 12.1507 6.33541 14 6.14014V10.5402C13.3457 10.6713 12.737 10.9287 12.2005 11.2859L9.08924 8.17463ZM7.67501 9.58883C6.56654 10.9608 5.83567 12.6504 5.64038 14.4998H10.0402C10.1714 13.8454 10.4289 13.2366 10.7862 12.7L7.67501 9.58883ZM17.7993 19.7131C17.2628 20.0703 16.6542 20.3277 16 20.459V24.8591C17.8493 24.6638 19.5388 23.9329 20.9107 22.8245L17.7993 19.7131ZM22.3249 21.4103C23.4332 20.0385 24.164 18.349 24.3594 16.4998H19.959C19.8278 17.1539 19.5705 17.7624 19.2134 18.2988L22.3249 21.4103ZM5.64041 16.4998C5.83574 18.3491 6.56664 20.0387 7.67512 21.4106L10.7863 18.2994C10.429 17.7628 10.1715 17.1541 10.0403 16.4998H5.64041ZM14 24.8591C12.1508 24.6639 10.4612 23.9331 9.08937 22.8248L12.2006 19.7135C12.7372 20.0706 13.3458 20.328 14 20.4591V24.8591ZM19.9591 14.4998C19.8279 13.8456 19.5706 13.2371 19.2135 12.7006L22.325 9.58913C23.4333 10.961 24.1641 12.6505 24.3594 14.4998H19.9591ZM16 6.14016C17.8493 6.33549 19.5389 7.0664 20.9108 8.17487L17.7994 11.2863C17.2629 10.9291 16.6543 10.6716 16 10.5403V6.14016Z" fill="#B1E7DD"/>
</svg>
