<svg width="30" height="31" viewBox="0 0 30 31" fill="none" xmlns="http://www.w3.org/2000/svg">
<path fill-rule="evenodd" clip-rule="evenodd" d="M14.9999 24.9119C20.198 24.9119 24.4119 20.698 24.4119 15.4999C24.4119 10.3018 20.198 6.08789 14.9999 6.08789C9.80178 6.08789 5.58789 10.3018 5.58789 15.4999C5.58789 20.698 9.80178 24.9119 14.9999 24.9119ZM16 9.23438C16 8.68209 15.5523 8.23438 15 8.23438C14.4477 8.23438 14 8.68209 14 9.23438V15.4997C14 15.8897 14.2268 16.2441 14.5809 16.4076L19.4911 18.674C19.9926 18.9055 20.5867 18.6866 20.8181 18.1852C21.0496 17.6837 20.8307 17.0896 20.3293 16.8581L16 14.8598V9.23438Z" fill="#B1E7DD"/>
</svg>
