<svg width="30" height="31" viewBox="0 0 30 31" fill="#B1E7DD" xmlns="http://www.w3.org/2000/svg">
<rect x="20.6223" y="5.7666" width="3.71844" height="2.21302" rx="1.10651" transform="rotate(90 20.6223 5.7666)" fill="current"/>
<rect x="15.5333" y="5.7666" width="3.71844" height="2.21302" rx="1.10651" transform="rotate(90 15.5333 5.7666)" fill="current"/>
<rect x="10.4442" y="5.7666" width="3.71844" height="2.21302" rx="1.10651" transform="rotate(90 10.4442 5.7666)" fill="current"/>
<path fill-rule="evenodd" clip-rule="evenodd" d="M5.17188 9.62598C5.17188 8.52141 6.06731 7.62598 7.17188 7.62598H21.6817C22.7862 7.62598 23.6817 8.52141 23.6817 9.62598V21.9534C23.6817 23.058 22.7862 23.9534 21.6817 23.9534H7.17188C6.06731 23.9534 5.17188 23.058 5.17188 21.9534V9.62598ZM11.4587 11.4683C11.4587 10.9362 11.8901 10.5049 12.4221 10.5049H20.1694C20.7014 10.5049 21.1328 10.9362 21.1328 11.4683C21.1328 12.0003 20.7014 12.4316 20.1694 12.4316H12.4221C11.8901 12.4316 11.4587 12.0003 11.4587 11.4683ZM12.4221 14.8604C11.8901 14.8604 11.4587 15.2917 11.4587 15.8237C11.4587 16.3558 11.8901 16.7871 12.4221 16.7871H20.1694C20.7014 16.7871 21.1328 16.3558 21.1328 15.8237C21.1328 15.2917 20.7014 14.8604 20.1694 14.8604H12.4221ZM11.4587 20.1792C11.4587 19.6471 11.8901 19.2158 12.4221 19.2158H20.1694C20.7014 19.2158 21.1328 19.6471 21.1328 20.1792C21.1328 20.7113 20.7014 21.1426 20.1694 21.1426H12.4221C11.8901 21.1426 11.4587 20.7113 11.4587 20.1792ZM9.19596 12.4316C9.72891 12.4316 10.161 12.0003 10.161 11.4683C10.161 10.9362 9.72891 10.5049 9.19596 10.5049C8.663 10.5049 8.23096 10.9362 8.23096 11.4683C8.23096 12.0003 8.663 12.4316 9.19596 12.4316ZM10.161 15.8237C10.161 16.3558 9.72891 16.7871 9.19596 16.7871C8.663 16.7871 8.23096 16.3558 8.23096 15.8237C8.23096 15.2917 8.663 14.8604 9.19596 14.8604C9.72891 14.8604 10.161 15.2917 10.161 15.8237ZM9.19596 21.1426C9.72891 21.1426 10.161 20.7113 10.161 20.1792C10.161 19.6471 9.72891 19.2158 9.19596 19.2158C8.663 19.2158 8.23096 19.6471 8.23096 20.1792C8.23096 20.7113 8.663 21.1426 9.19596 21.1426Z" fill="current"/>
</svg>
