<svg width="30" height="30" viewBox="0 0 30 30" fill="none" xmlns="http://www.w3.org/2000/svg">
<path d="M14.9999 9.46738V11.1858L18.6882 8.5453L14.9999 5.90479V7.62322C10.9243 7.62322 7.62329 10.9243 7.62329 14.9999C7.62329 16.0217 7.8346 16.9929 8.21184 17.8748C8.45221 18.4367 9.17713 18.5174 9.6093 18.0853C9.90803 17.7865 9.96635 17.3296 9.81707 16.9344C9.58994 16.3331 9.46745 15.6787 9.46745 14.9999C9.46745 11.9478 11.9478 9.46738 14.9999 9.46738ZM21.7906 12.1311C21.5494 11.5658 20.8204 11.4845 20.3858 11.9191C20.089 12.2159 20.0276 12.6685 20.1758 13.0613C20.4039 13.6657 20.5324 14.318 20.5324 14.9999C20.5324 18.0519 18.052 20.5323 14.9999 20.5323V18.8139L11.3116 21.4544L14.9999 24.0949V22.3765C19.0755 22.3765 22.3765 19.0754 22.3765 14.9999C22.3765 13.9804 22.1662 13.0113 21.7906 12.1311Z" fill="#1FC6D0"/>
</svg>
