<svg width="30" height="31" viewBox="0 0 30 31" fill="#B1E7DD" xmlns="http://www.w3.org/2000/svg">
<path fill-rule="evenodd" clip-rule="evenodd" d="M8.95972 6.45947C7.30286 6.45947 5.95972 7.80262 5.95972 9.45947V21.5408C5.95972 23.1976 7.30286 24.5408 8.95972 24.5408H21.041C22.6979 24.5408 24.041 23.1976 24.041 21.5408V9.45947C24.041 7.80262 22.6979 6.45947 21.041 6.45947H8.95972ZM19.0039 13.2944C19.5562 13.2944 20.0039 12.8467 20.0039 12.2944C20.0039 11.7421 19.5562 11.2944 19.0039 11.2944H10.9964C10.4442 11.2944 9.99644 11.7421 9.99644 12.2944C9.99644 12.8467 10.4442 13.2944 10.9964 13.2944H14.0002V20.0006C14.0002 20.5529 14.4479 21.0006 15.0002 21.0006C15.5525 21.0006 16.0002 20.5529 16.0002 20.0006V13.2944H19.0039Z" fill="current"/>
</svg>
