<svg width="46" height="46" viewBox="0 0 46 46" fill="none" xmlns="http://www.w3.org/2000/svg">
  <rect width="46" height="46" rx="6" fill="white"/>
  <path fill-rule="evenodd" clip-rule="evenodd" d="M34.52 23.2729C34.52 22.422 34.4436 21.6038 34.3018 20.8184H23V25.4602H29.4582C29.18 26.9602 28.3345 28.2311 27.0636 29.082V32.0929H30.9418C33.2109 30.0038 34.52 26.9274 34.52 23.2729Z" fill="#4285F4"/>
  <path fill-rule="evenodd" clip-rule="evenodd" d="M23 34.9998C26.24 34.9998 28.9564 33.9252 30.9418 32.0925L27.0636 29.0816C25.9891 29.8016 24.6145 30.2271 23 30.2271C19.8745 30.2271 17.2291 28.1161 16.2855 25.2798H12.2764V28.3889C14.2509 32.3107 18.3091 34.9998 23 34.9998Z" fill="#34A853"/>
  <path fill-rule="evenodd" clip-rule="evenodd" d="M16.2855 25.2799C16.0455 24.5599 15.9091 23.7908 15.9091 22.9999C15.9091 22.209 16.0455 21.4399 16.2855 20.7199V17.6108H12.2764C11.4636 19.2308 11 21.0636 11 22.9999C11 24.9363 11.4636 26.769 12.2764 28.389L16.2855 25.2799Z" fill="#FBBC05"/>
  <path fill-rule="evenodd" clip-rule="evenodd" d="M23 15.7727C24.7618 15.7727 26.3436 16.3782 27.5873 17.5673L31.0291 14.1255C28.9509 12.1891 26.2345 11 23 11C18.3091 11 14.2509 13.6891 12.2764 17.6109L16.2855 20.72C17.2291 17.8836 19.8745 15.7727 23 15.7727Z" fill="#EA4335"/>
</svg>
