<svg width="57" height="14" viewBox="0 0 57 14" fill="none" xmlns="http://www.w3.org/2000/svg">
<path d="M50.3938 6.08009C50.3938 5.40809 50.3885 4.69876 50.3778 3.9521C50.3778 3.19476 50.3778 2.41609 50.3778 1.61609C50.3778 1.40276 50.4311 1.23209 50.5378 1.10409C50.6551 0.965428 50.8738 0.906761 51.1938 0.928095C51.5138 0.949428 51.8925 0.981428 52.3298 1.02409C52.7778 1.05609 53.2471 1.14676 53.7378 1.29609C54.0898 1.40276 54.4258 1.55743 54.7458 1.76009C55.0765 1.95209 55.3591 2.18676 55.5938 2.4641C55.8391 2.74143 56.0311 3.05609 56.1698 3.40809C56.3191 3.74943 56.3938 4.11743 56.3938 4.51209C56.3938 5.29076 56.1485 6.00543 55.6578 6.65609C55.1778 7.29609 54.4631 7.7921 53.5138 8.1441C53.9725 8.9761 54.4205 9.76543 54.8578 10.5121C55.3058 11.2588 55.7965 12.0534 56.3298 12.8961C56.4471 13.0668 56.4898 13.2268 56.4578 13.3761C56.4365 13.5361 56.3778 13.6641 56.2818 13.7601C56.1538 13.8881 55.9991 13.9521 55.8178 13.9521C55.5938 13.9521 55.4018 13.8401 55.2418 13.6161C54.6658 12.8054 54.1325 11.9681 53.6418 11.1041C53.1511 10.2401 52.6391 9.36543 52.1058 8.48009H51.8498C51.8498 8.85343 51.8445 9.21076 51.8338 9.5521C51.8338 9.89343 51.8338 10.2188 51.8338 10.5281C51.8338 11.1254 51.8338 11.6748 51.8338 12.1761C51.8445 12.6774 51.8391 13.0454 51.8178 13.2801C51.7965 13.4934 51.7111 13.6481 51.5618 13.7441C51.4231 13.8508 51.2738 13.9041 51.1138 13.9041C50.9325 13.9041 50.7671 13.8508 50.6178 13.7441C50.4685 13.6481 50.3938 13.4774 50.3938 13.2321V6.08009ZM52.9538 2.44809C52.8045 2.40543 52.6178 2.37343 52.3938 2.35209C52.1805 2.33076 51.9885 2.30943 51.8178 2.28809C51.8178 3.02409 51.8178 3.79743 51.8178 4.6081C51.8285 5.41876 51.8391 6.26143 51.8498 7.1361C52.4365 7.05076 52.9271 6.9281 53.3218 6.7681C53.7165 6.59743 54.0311 6.40009 54.2658 6.1761C54.5111 5.9521 54.6818 5.70676 54.7778 5.44009C54.8845 5.16276 54.9378 4.87476 54.9378 4.57609C54.9378 4.39476 54.9005 4.19743 54.8258 3.98409C54.7511 3.76009 54.6338 3.54676 54.4738 3.3441C54.3138 3.14143 54.1058 2.96009 53.8498 2.80009C53.6045 2.64009 53.3058 2.52276 52.9538 2.44809Z" fill="#333333"/>
<path d="M44.7176 1.50388C44.7602 1.32255 44.8296 1.17322 44.9256 1.05588C45.0322 0.93855 45.1922 0.879883 45.4056 0.879883C45.5549 0.879883 45.6829 0.917216 45.7896 0.991883C45.9069 1.05588 45.9869 1.16255 46.0296 1.31188C46.3389 2.33588 46.6482 3.45055 46.9576 4.65588C47.2776 5.85055 47.5762 7.03455 47.8536 8.20788C48.0562 9.03988 48.2536 9.87722 48.4456 10.7199C48.6376 11.5519 48.8349 12.3306 49.0376 13.0559C49.0696 13.1839 49.0696 13.3012 49.0376 13.4079C49.0162 13.5252 48.9682 13.6212 48.8936 13.6959C48.8296 13.7812 48.7442 13.8452 48.6376 13.8879C48.5416 13.9305 48.4456 13.9519 48.3496 13.9519C47.9869 13.9519 47.7522 13.7652 47.6456 13.3919C47.4642 12.8159 47.3096 12.2559 47.1816 11.7119C47.0642 11.1572 46.9362 10.6132 46.7976 10.0799H43.9176C43.7896 10.5599 43.6616 11.0719 43.5336 11.6159C43.4162 12.1599 43.2936 12.7519 43.1656 13.3919C43.1122 13.5519 43.0109 13.6799 42.8616 13.7759C42.7229 13.8826 42.5789 13.9359 42.4296 13.9359C42.2269 13.9359 42.0509 13.8612 41.9016 13.7119C41.7629 13.5626 41.7202 13.3492 41.7736 13.0719C41.9762 12.1226 42.1896 11.2159 42.4136 10.3519C42.6482 9.48788 42.8829 8.65588 43.1176 7.85588C43.3736 6.94922 43.6402 5.97855 43.9176 4.94388C44.1949 3.90922 44.4616 2.76255 44.7176 1.50388ZM44.5256 7.95188C44.5042 8.02655 44.4669 8.14922 44.4136 8.31988C44.3709 8.49055 44.3389 8.61322 44.3176 8.68788H46.4616C46.4082 8.45322 46.3549 8.20255 46.3016 7.93588C46.2482 7.66922 46.1949 7.42922 46.1416 7.21588C46.0776 6.92788 46.0082 6.59722 45.9336 6.22388C45.8696 5.85055 45.8056 5.51455 45.7416 5.21588C45.6989 5.02388 45.6562 4.79988 45.6136 4.54388C45.5709 4.28788 45.5229 4.06922 45.4696 3.88788C45.4269 4.07988 45.3789 4.30922 45.3256 4.57588C45.2829 4.83188 45.2349 5.05055 45.1816 5.23188C45.0642 5.71188 44.9576 6.18122 44.8616 6.63988C44.7656 7.08788 44.6536 7.52522 44.5256 7.95188Z" fill="#333333"/>
<path d="M34.5344 1.64789C34.5558 1.33856 34.6624 1.16256 34.8544 1.11989C35.0464 1.06656 35.2704 1.04522 35.5264 1.05589C36.4118 1.09856 37.1958 1.25322 37.8784 1.51989C38.5611 1.77589 39.1318 2.15989 39.5904 2.67189C40.0598 3.17322 40.4118 3.80789 40.6464 4.57589C40.8811 5.33322 40.9931 6.22922 40.9824 7.26389C40.9611 9.33322 40.5131 10.9172 39.6384 12.0159C38.7744 13.1039 37.5318 13.6586 35.9104 13.6799C35.5478 13.6906 35.2704 13.6479 35.0784 13.5519C34.8864 13.4559 34.7744 13.2159 34.7424 12.8319C34.7211 12.3946 34.7051 11.8506 34.6944 11.1999C34.6838 10.5386 34.6731 9.89322 34.6624 9.26389C34.6624 8.95456 34.6624 8.65056 34.6624 8.35189C34.6624 8.05322 34.6571 7.74922 34.6464 7.43989L34.5984 5.13589C34.5878 4.63456 34.5718 4.14389 34.5504 3.66389C34.5398 3.17322 34.5344 2.67189 34.5344 2.15989V1.64789ZM36.0544 7.39189C36.0651 8.21322 36.0758 9.05056 36.0864 9.90389C36.0971 10.7466 36.1131 11.5786 36.1344 12.3999C36.1878 12.4106 36.2304 12.4159 36.2624 12.4159C36.3051 12.4159 36.3478 12.4159 36.3904 12.4159C36.8598 12.4159 37.2864 12.2772 37.6704 11.9999C38.0651 11.7119 38.4011 11.3279 38.6784 10.8479C38.9558 10.3679 39.1691 9.81322 39.3184 9.18389C39.4784 8.55456 39.5584 7.89322 39.5584 7.19989C39.5584 6.50656 39.4731 5.86122 39.3024 5.26389C39.1424 4.66656 38.9078 4.14922 38.5984 3.71189C38.2891 3.27456 37.9104 2.93856 37.4624 2.70389C37.0144 2.46922 36.5131 2.36256 35.9584 2.38389C35.9584 2.93856 35.9638 3.48789 35.9744 4.03189C35.9851 4.57589 36.0011 5.12522 36.0224 5.67989C36.0331 5.95722 36.0384 6.23989 36.0384 6.52789C36.0384 6.81589 36.0438 7.10389 36.0544 7.39189Z" fill="#333333"/>
<path d="M25.0193 1.68011C25.0086 1.44544 25.0566 1.26944 25.1633 1.15211C25.2806 1.02411 25.4299 0.960109 25.6113 0.960109C25.7286 0.960109 25.8459 0.992109 25.9633 1.05611C26.0806 1.12011 26.1713 1.21078 26.2353 1.32811C26.3739 1.58411 26.5073 1.82944 26.6353 2.06411C26.7633 2.29878 26.8859 2.53878 27.0033 2.78411C27.6753 4.04278 28.3259 5.29078 28.9553 6.52811C29.5953 7.76544 30.2139 9.01878 30.8113 10.2881V3.96811C30.8113 3.46678 30.8113 3.01878 30.8113 2.62411C30.8113 2.22944 30.8059 1.89878 30.7953 1.63211C30.8166 1.40811 30.8913 1.23211 31.0193 1.10411C31.1579 0.976109 31.3179 0.912109 31.4993 0.912109C31.6699 0.912109 31.8406 0.976109 32.0113 1.10411C32.1819 1.22144 32.2673 1.41344 32.2673 1.68011C32.2673 1.77611 32.2619 1.92011 32.2513 2.11211C32.2513 2.30411 32.2513 2.50678 32.2513 2.72011C32.2513 2.92278 32.2459 3.12011 32.2353 3.31211C32.2353 3.49344 32.2353 3.62678 32.2353 3.71211V7.48811C32.2353 8.22411 32.2353 9.03478 32.2353 9.92011C32.2459 10.8054 32.2513 11.7814 32.2513 12.8481C32.2513 12.9761 32.2406 13.0988 32.2193 13.2161C32.2086 13.3441 32.1819 13.4614 32.1393 13.5681C32.0966 13.6748 32.0326 13.7601 31.9473 13.8241C31.8619 13.8881 31.7499 13.9201 31.6113 13.9201C31.4299 13.9201 31.2753 13.8614 31.1473 13.7441C31.0193 13.6268 30.9073 13.4614 30.8113 13.2481C30.6299 12.8748 30.4326 12.4694 30.2193 12.0321C30.0059 11.5841 29.7873 11.1361 29.5633 10.6881C29.3499 10.2614 29.1313 9.82944 28.9073 9.39211C28.6833 8.95478 28.4486 8.50678 28.2033 8.04811C27.8939 7.44011 27.5953 6.88011 27.3073 6.36811C27.0193 5.85611 26.7473 5.29611 26.4913 4.68811C26.5019 4.91211 26.5126 5.16278 26.5233 5.44011C26.5339 5.71744 26.5446 5.99478 26.5553 6.27211C26.5659 6.54944 26.5766 6.81611 26.5873 7.07211C26.5979 7.32811 26.6033 7.55211 26.6033 7.74411C26.6246 8.32011 26.6406 8.83744 26.6513 9.29611C26.6726 9.74411 26.6886 10.1761 26.6993 10.5921C26.7099 10.9974 26.7206 11.4081 26.7313 11.8241C26.7419 12.2401 26.7473 12.7041 26.7473 13.2161C26.7473 13.4614 26.6619 13.6428 26.4913 13.7601C26.3313 13.8774 26.1606 13.9361 25.9793 13.9361C25.7979 13.9361 25.6379 13.8721 25.4993 13.7441C25.3606 13.6268 25.2913 13.4508 25.2913 13.2161V11.6001C25.2806 10.9388 25.2753 10.2401 25.2753 9.50411C25.2753 8.76811 25.2486 7.98411 25.1953 7.15211C25.1633 6.23478 25.1366 5.33344 25.1153 4.44811C25.1046 3.55211 25.0726 2.62944 25.0193 1.68011Z" fill="#333333"/>
<path d="M17.2685 8.2237C17.2685 7.28503 17.2685 6.4957 17.2685 5.8557C17.2685 5.20503 17.2631 4.6717 17.2525 4.2557C17.2525 3.82903 17.2471 3.49837 17.2365 3.2637C17.2365 3.01837 17.2311 2.83703 17.2205 2.7197C17.2205 2.5917 17.2205 2.50637 17.2205 2.4637C17.2205 2.42103 17.2205 2.37837 17.2205 2.3357V1.6957C17.2205 1.54637 17.2525 1.39703 17.3165 1.2477C17.3911 1.0877 17.5565 1.0077 17.8125 1.0077H19.9725C20.2285 1.0077 20.4738 1.0077 20.7085 1.0077C20.9431 0.997032 21.1671 0.991699 21.3805 0.991699C21.8818 0.991699 22.2231 1.0077 22.4045 1.0397C22.5218 1.06103 22.6445 1.1197 22.7725 1.2157C22.9111 1.30103 22.9805 1.44503 22.9805 1.6477C22.9805 1.79703 22.9538 1.9197 22.9005 2.0157C22.8578 2.10103 22.7938 2.17037 22.7085 2.2237C22.6338 2.26637 22.5485 2.29303 22.4525 2.3037C22.3565 2.31437 22.2605 2.3197 22.1645 2.3197L18.6605 2.3037C18.6711 3.0397 18.6818 3.73837 18.6925 4.3997C18.7138 5.05037 18.7298 5.7437 18.7405 6.4797C18.8791 6.4797 19.0711 6.48503 19.3165 6.4957C19.5725 6.4957 19.8711 6.4957 20.2125 6.4957C20.5538 6.4957 20.8791 6.50103 21.1885 6.5117C21.5085 6.5117 21.8445 6.50103 22.1965 6.4797C22.3671 6.46903 22.5111 6.51703 22.6285 6.6237C22.7565 6.73037 22.8205 6.87437 22.8205 7.0557C22.8205 7.2797 22.7565 7.4557 22.6285 7.5837C22.5111 7.70103 22.3458 7.76503 22.1325 7.7757C21.9725 7.78637 21.7058 7.79703 21.3325 7.8077C20.9591 7.8077 20.5805 7.8077 20.1965 7.8077H18.7245C18.7245 8.24503 18.7245 8.6877 18.7245 9.1357C18.7351 9.57303 18.7405 10.0104 18.7405 10.4477V11.9197C18.7405 12.037 18.7618 12.117 18.8045 12.1597C18.8471 12.1917 18.9111 12.2077 18.9965 12.2077H19.7485C20.0898 12.2077 20.4045 12.213 20.6925 12.2237C20.9805 12.2237 21.1991 12.2184 21.3485 12.2077L22.6605 12.1917C23.0978 12.1917 23.3165 12.4104 23.3165 12.8477C23.3165 13.0397 23.2631 13.189 23.1565 13.2957C23.0498 13.413 22.8845 13.477 22.6605 13.4877C22.4151 13.4984 22.1378 13.5037 21.8285 13.5037C21.5298 13.5037 21.2738 13.5037 21.0605 13.5037H18.3085C17.8711 13.5037 17.5885 13.3917 17.4605 13.1677C17.3325 12.9437 17.2685 12.6824 17.2685 12.3837V8.2237Z" fill="#333333"/>
<path d="M9.08131 6.08009C9.08131 5.40809 9.07597 4.69876 9.06531 3.9521C9.06531 3.19476 9.06531 2.41609 9.06531 1.61609C9.06531 1.40276 9.11864 1.23209 9.22531 1.10409C9.34264 0.965428 9.56131 0.906761 9.88131 0.928095C10.2013 0.949428 10.58 0.981428 11.0173 1.02409C11.4653 1.05609 11.9346 1.14676 12.4253 1.29609C12.7773 1.40276 13.1133 1.55743 13.4333 1.76009C13.764 1.95209 14.0466 2.18676 14.2813 2.4641C14.5266 2.74143 14.7186 3.05609 14.8573 3.40809C15.0066 3.74943 15.0813 4.11743 15.0813 4.51209C15.0813 5.29076 14.836 6.00543 14.3453 6.65609C13.8653 7.29609 13.1506 7.7921 12.2013 8.1441C12.66 8.9761 13.108 9.76543 13.5453 10.5121C13.9933 11.2588 14.484 12.0534 15.0173 12.8961C15.1346 13.0668 15.1773 13.2268 15.1453 13.3761C15.124 13.5361 15.0653 13.6641 14.9693 13.7601C14.8413 13.8881 14.6866 13.9521 14.5053 13.9521C14.2813 13.9521 14.0893 13.8401 13.9293 13.6161C13.3533 12.8054 12.82 11.9681 12.3293 11.1041C11.8386 10.2401 11.3266 9.36543 10.7933 8.48009H10.5373C10.5373 8.85343 10.532 9.21076 10.5213 9.5521C10.5213 9.89343 10.5213 10.2188 10.5213 10.5281C10.5213 11.1254 10.5213 11.6748 10.5213 12.1761C10.532 12.6774 10.5266 13.0454 10.5053 13.2801C10.484 13.4934 10.3986 13.6481 10.2493 13.7441C10.1106 13.8508 9.96131 13.9041 9.80131 13.9041C9.61997 13.9041 9.45464 13.8508 9.30531 13.7441C9.15597 13.6481 9.08131 13.4774 9.08131 13.2321V6.08009ZM11.6413 2.44809C11.492 2.40543 11.3053 2.37343 11.0813 2.35209C10.868 2.33076 10.676 2.30943 10.5053 2.28809C10.5053 3.02409 10.5053 3.79743 10.5053 4.6081C10.516 5.41876 10.5266 6.26143 10.5373 7.1361C11.124 7.05076 11.6146 6.9281 12.0093 6.7681C12.404 6.59743 12.7186 6.40009 12.9533 6.1761C13.1986 5.9521 13.3693 5.70676 13.4653 5.44009C13.572 5.16276 13.6253 4.87476 13.6253 4.57609C13.6253 4.39476 13.588 4.19743 13.5133 3.98409C13.4386 3.76009 13.3213 3.54676 13.1613 3.3441C13.0013 3.14143 12.7933 2.96009 12.5373 2.80009C12.292 2.64009 11.9933 2.52276 11.6413 2.44809Z" fill="#333333"/>
<path d="M1.5791 2.48C1.26976 2.49067 1.04576 2.42134 0.907097 2.272C0.76843 2.12267 0.699097 1.95734 0.699097 1.776C0.699097 1.616 0.757763 1.472 0.875097 1.344C1.0031 1.216 1.17376 1.14667 1.3871 1.136C1.8671 1.11467 2.37376 1.104 2.9071 1.104C3.4511 1.104 3.9791 1.104 4.4911 1.104C4.94976 1.104 5.39776 1.10934 5.8351 1.12C6.2831 1.12 6.7151 1.12534 7.1311 1.136C7.33376 1.14667 7.49376 1.22134 7.6111 1.36C7.72843 1.488 7.7871 1.62667 7.7871 1.776C7.7871 1.936 7.72843 2.08534 7.6111 2.224C7.49376 2.352 7.31776 2.416 7.0831 2.416H4.7791C4.78976 3.248 4.80043 4.10134 4.8111 4.976C4.83243 5.85067 4.85376 6.67734 4.8751 7.45601C4.88576 7.63734 4.8911 7.86134 4.8911 8.128C4.8911 8.39467 4.8911 8.61334 4.8911 8.784C4.8911 9.25334 4.88576 9.73867 4.8751 10.24C4.86443 10.7307 4.85376 11.2053 4.8431 11.664C4.83243 11.92 4.8271 12.1867 4.8271 12.464C4.8271 12.7307 4.82176 13.0027 4.8111 13.28C4.80043 13.504 4.72043 13.6747 4.5711 13.792C4.42176 13.9093 4.25643 13.968 4.0751 13.968C3.89376 13.968 3.72843 13.9093 3.5791 13.792C3.42976 13.6853 3.34976 13.5253 3.3391 13.312C3.32843 13.0453 3.32843 12.7787 3.3391 12.512C3.34976 12.2347 3.36043 11.968 3.3711 11.712C3.38176 11.2853 3.39243 10.8107 3.4031 10.288C3.41376 9.75467 3.4191 9.26934 3.4191 8.832C3.4191 8.64 3.4191 8.43734 3.4191 8.224C3.4191 8.01067 3.41376 7.73867 3.4031 7.408C3.38176 6.60801 3.3551 5.78134 3.3231 4.928C3.30176 4.07467 3.2911 3.248 3.2911 2.448C2.96043 2.45867 2.6511 2.464 2.3631 2.464C2.08576 2.464 1.82443 2.46934 1.5791 2.48Z" fill="#333333"/>
</svg>
