<svg width="50" height="50" viewBox="0 0 50 50" fill="none" xmlns="http://www.w3.org/2000/svg">
<path d="M8.0957 13.2388H19.3457V46.5773H17.0957C12.1251 46.5773 8.0957 42.5479 8.0957 37.5773V13.2388Z" fill="#4482F9"/>
<path d="M49.4037 22.7773C49.4037 27.7479 45.3742 31.7773 40.4037 31.7773L38.1537 31.7773L38.1537 12.7982L49.4037 12.7982L49.4037 22.7773Z" fill="#7FF6D3"/>
<path d="M34.375 22.7773C34.375 27.7479 30.3456 31.7773 25.375 31.7773L23.125 31.7773L23.125 12.7982L34.375 12.7982L34.375 22.7773Z" fill="#44C0FF"/>
<path d="M34.375 46.5771L19.3457 46.5771L19.3457 35.3271L25.375 35.3271C30.3456 35.3271 34.375 39.3566 34.375 44.3271L34.375 46.5771Z" fill="#4482F9"/>
<rect x="0.595703" y="3.86377" width="18.75" height="18.75" rx="9.375" fill="#4482F9"/>
<rect x="15.625" y="3.86377" width="18.75" height="18.75" rx="9.375" fill="#44C0FF"/>
<rect x="30.6543" y="3.86377" width="18.75" height="18.75" rx="9.375" fill="#7FF6D3"/>
<rect x="38.1538" y="35.3271" width="11.25" height="11.25" rx="5.625" fill="#7FF6D3"/>
</svg>
