<svg width="26" height="25" viewBox="0 0 26 25" fill="none" xmlns="http://www.w3.org/2000/svg">
<path fill-rule="evenodd" clip-rule="evenodd" d="M21.1015 6.55861C19.2387 4.00228 16.1994 2.36239 12.8046 2.42858C7.73443 2.52744 3.60464 6.38345 3.04639 11.2883C2.92796 12.7394 3.08132 14.0667 3.41025 14.6925C3.91243 15.6479 5.09308 15.6939 5.7393 15.6196C5.89582 15.6017 6.04695 15.5583 6.19804 15.515C6.32779 15.4778 6.4575 15.4406 6.59059 15.4195C6.83476 15.3808 7.36726 15.3222 7.6141 15.3488C8.08491 15.3996 8.35448 15.4684 8.78575 15.7287C9.15352 15.9507 9.41298 16.1461 9.6348 16.5038C9.80749 16.7822 9.94236 17.2461 9.89561 17.7517C9.83692 18.3864 9.47288 18.8003 9.21613 18.9974C8.78026 19.332 8.24478 19.846 8.12728 20.1658C8.00978 20.4855 7.90277 20.9184 7.98297 21.2641C8.06317 21.6098 8.55528 21.9121 9.23593 22.0796C9.29927 22.0952 9.52513 22.1296 9.81237 22.1733L9.8124 22.1733C10.4338 22.2678 11.3424 22.4059 11.5146 22.4924L13.2126 22.4593C18.7344 22.3516 23.1231 17.7706 23.0154 12.2488C23.0027 11.599 22.9281 10.9647 22.7973 10.3513L22.3149 11.0056C22.2868 11.0438 22.2565 11.0794 22.2242 11.1124C22.9634 12.1409 22.9939 13.5688 22.2018 14.6433L20.358 17.1443C20.0303 17.5888 19.4043 17.6835 18.9597 17.3558L14.4055 13.9984C13.961 13.6707 13.8663 13.0446 14.194 12.6001L16.0378 10.0991C16.8105 9.05095 18.1361 8.65109 19.3156 9.00526C19.3407 8.95528 19.3704 8.90674 19.4047 8.86018L21.1015 6.55861ZM6.97751 9.47441C7.98281 9.58585 8.70742 10.4911 8.59598 11.4964C8.48454 12.5017 7.57924 13.2263 6.57395 13.1149C5.56866 13.0035 4.84405 12.0982 4.95549 11.0929C5.06693 10.0876 5.97222 9.36297 6.97751 9.47441ZM12.3542 6.38535C12.4656 5.38006 11.741 4.47477 10.7357 4.36333C9.7304 4.25189 8.82511 4.9765 8.71367 5.98179C8.60223 6.98708 9.32684 7.89238 10.3321 8.00382C11.3374 8.11526 12.2427 7.39065 12.3542 6.38535ZM16.6589 4.7697C17.6642 4.88114 18.3888 5.78643 18.2774 6.79173C18.1659 7.79702 17.2606 8.52163 16.2553 8.41019C15.2501 8.29875 14.5254 7.39346 14.6369 6.38816C14.7483 5.38287 15.6536 4.65826 16.6589 4.7697ZM15.2929 19.0895C15.6797 18.155 15.2357 17.0838 14.3012 16.697C13.3666 16.3101 12.2954 16.7542 11.9086 17.6887C11.5218 18.6233 11.9658 19.6945 12.9003 20.0813C13.8349 20.4681 14.9061 20.0241 15.2929 19.0895Z" fill="currentColor"/>
<path d="M16.8996 10.528C17.5551 9.63896 18.8072 9.44955 19.6963 10.105L21.1145 11.1506C22.0036 11.806 22.193 13.0581 21.5376 13.9472L20.9379 14.7606L16.3 11.3415L16.8996 10.528Z" fill="currentColor"/>
<path d="M23.2469 4.87791C23.5747 4.43337 24.2007 4.33867 24.6452 4.66639L24.8461 4.8145C25.2907 5.14222 25.3854 5.76826 25.0577 6.21281L20.6224 12.2291L18.8117 10.8942L23.2469 4.87791Z" fill="currentColor"/>
</svg>
